<svg width="28" height="28" viewBox="0 0 28 28" fill="none" xmlns="http://www.w3.org/2000/svg">
<path d="M14 28C21.732 28 28 21.732 28 14C28 6.26801 21.732 0 14 0C6.26801 0 0 6.26801 0 14C0 21.732 6.26801 28 14 28Z" fill="#006699"/>
<path fill-rule="evenodd" clip-rule="evenodd" d="M11.5881 21.7364H14.7609V15.8695C14.7482 15.5964 14.785 15.3233 14.8696 15.0634C14.9932 14.7119 15.2224 14.4073 15.5258 14.191C15.8292 13.9748 16.1919 13.8575 16.5645 13.8553C17.9911 13.8553 18.4897 14.7667 18.4897 16.1027V21.7364H21.6897V15.721C21.6897 12.6683 20.7597 11.0298 17.8866 11.0298C17.2317 10.9871 16.5794 11.1454 16.0169 11.4837C15.4545 11.8219 15.0088 12.3239 14.7395 12.9224H14.7615V11.2478H11.5882C11.6315 12.1804 11.5882 21.7364 11.5882 21.7364H11.5881Z" fill="white"/>
<path d="M7.89 9.83C8.93387 9.83 9.7801 8.98378 9.7801 7.93991C9.7801 6.89603 8.93387 6.0498 7.89 6.0498C6.84613 6.0498 5.9999 6.89603 5.9999 7.93991C5.9999 8.98378 6.84613 9.83 7.89 9.83Z" fill="white"/>
<path d="M9.5 11.25H6.25V21.7402H9.5V11.25Z" fill="white"/>
</svg>
